<svg xmlns="http://www.w3.org/2000/svg" width="1667" height="1667" viewBox="0 0 1667 1667" version="1.1"><path d="M 821 833.500 L 821 1283 832 1283 L 843 1283 843 833.500 L 843 384 832 384 L 821 384 821 833.500 M 788 870 L 788 1283 799 1283 L 810 1283 810 870 L 810 457 799 457 L 788 457 788 870 M 857 870 L 857 1283 868 1283 L 879 1283 879 870 L 879 457 868 457 L 857 457 857 870 M 753 904 L 753 1283 763.500 1283 L 774 1283 774 904 L 774 525 763.500 525 L 753 525 753 904 M 892 904 L 892 1283 903 1283 L 914 1283 914 904 L 914 525 903 525 L 892 525 892 904 M 714 941 L 714 1283 725 1283 L 736 1283 736 941 L 736 599 725 599 L 714 599 714 941 M 931 941 L 931 1283 942 1283 L 953 1283 953 941 L 953 599 942 599 L 931 599 931 941 M 573 968.500 L 573 1283 583.500 1283 L 594 1283 594 968.500 L 594 654 583.500 654 L 573 654 573 968.500 M 1072 968.500 L 1072 1283 1083 1283 L 1094 1283 1094 968.500 L 1094 654 1083 654 L 1072 654 1072 968.500 M 677 972.500 L 677 1283 688 1283 L 699 1283 699 972.500 L 699 662 688 662 L 677 662 677 972.500 M 968 972.500 L 968 1283 979 1283 L 990 1283 990 972.500 L 990 662 979 662 L 968 662 968 972.500 M 607 978 L 607 1283 618 1283 L 629 1283 629 978 L 629 673 618 673 L 607 673 607 978 M 1038 978 L 1038 1283 1049 1283 L 1060 1283 1060 978 L 1060 673 1049 673 L 1038 673 1038 978 M 1003 979.966 L 1003 1283 1014.002 1283 L 1025.003 1283 1024.752 980.250 L 1024.500 677.500 1013.750 677.216 L 1003 676.932 1003 979.966 M 642 980.500 L 642 1283 653 1283 L 664 1283 664 980.500 L 664 678 653 678 L 642 678 642 980.500 M 342 1079.500 L 342 1283 352.500 1283 L 363 1283 363 1079.500 L 363 876 352.500 876 L 342 876 342 1079.500 M 1303 1079.500 L 1303 1283 1314 1283 L 1325 1283 1325 1079.500 L 1325 876 1314 876 L 1303 876 1303 1079.500 M 371 1107 L 371 1283 381.500 1283 L 392 1283 392 1107 L 392 931 381.500 931 L 371 931 371 1107 M 1274 1107 L 1274 1283 1285 1283 L 1296 1283 1296 1107 L 1296 931 1285 931 L 1274 931 1274 1107 M 311 1119 L 311 1283 321.500 1283 L 332 1283 332 1119 L 332 955 321.500 955 L 311 955 311 1119 M 1334 1119 L 1334 1283 1345 1283 L 1356 1283 1356 1119 L 1356 955 1345 955 L 1334 955 1334 1119 M 1241.699 963.634 C 1241.315 964.019, 1241 1036.033, 1241 1123.667 L 1241 1283 1252.003 1283 L 1263.006 1283 1262.753 1123.250 L 1262.500 963.500 1252.449 963.217 C 1246.922 963.062, 1242.084 963.249, 1241.699 963.634 M 404 1123.500 L 404 1283 414.500 1283 L 425 1283 425 1123.500 L 425 964 414.500 964 L 404 964 404 1123.500 M 1575 1126.967 L 1575 1283 1586.503 1283 L 1598.006 1283 1597.753 1127.250 L 1597.500 971.500 1586.250 971.217 L 1575 970.934 1575 1126.967 M 69 1127.500 L 69 1283 80.500 1283 L 92 1283 92 1127.500 L 92 972 80.500 972 L 69 972 69 1127.500 M 1543.667 979.667 C 1543.300 980.033, 1543 1048.433, 1543 1131.667 L 1543 1283 1554.500 1283 L 1566 1283 1566 1131 L 1566 979 1555.167 979 C 1549.208 979, 1544.033 979.300, 1543.667 979.667 M 100 1131.500 L 100 1283 111.500 1283 L 123 1283 123 1131.500 L 123 980 111.500 980 L 100 980 100 1131.500 M 131 1135 L 131 1283 142 1283 L 153 1283 153 1135 L 153 987 142 987 L 131 987 131 1135 M 1511 1135 L 1511 1283 1522.500 1283 L 1534 1283 1534 1135 L 1534 987 1522.500 987 L 1511 987 1511 1135 M 1208.667 994.667 C 1208.300 995.033, 1208 1060.058, 1208 1139.167 L 1208 1283 1219 1283 L 1230 1283 1230 1138.500 L 1230 994 1219.667 994 C 1213.983 994, 1209.033 994.300, 1208.667 994.667 M 1482 1138.500 L 1482 1283 1493 1283 L 1504 1283 1504 1138.500 L 1504 994 1493 994 L 1482 994 1482 1138.500 M 161 1139 L 161 1283 172 1283 L 183 1283 183 1139 L 183 995 172 995 L 161 995 161 1139 M 437 1139 L 437 1283 447.500 1283 L 458 1283 458 1139 L 458 995 447.500 995 L 437 995 437 1139 M 192 1142.500 L 192 1283 202.500 1283 L 213 1283 213 1142.500 L 213 1002 202.500 1002 L 192 1002 192 1142.500 M 280 1142.500 L 280 1283 291 1283 L 302 1283 302 1142.500 L 302 1002 291 1002 L 280 1002 280 1142.500 M 1365 1142.500 L 1365 1283 1376 1283 L 1387 1283 1387 1142.500 L 1387 1002 1376 1002 L 1365 1002 1365 1142.500 M 1453 1142.500 L 1453 1283 1464 1283 L 1475 1283 1475 1142.500 L 1475 1002 1464 1002 L 1453 1002 1453 1142.500 M 222 1146 L 222 1283 232.500 1283 L 243 1283 243 1146 L 243 1009 232.500 1009 L 222 1009 222 1146 M 1424 1146 L 1424 1283 1434.500 1283 L 1445 1283 1445 1146 L 1445 1009 1434.500 1009 L 1424 1009 1424 1146 M 251 1147.500 L 251 1283 261.500 1283 L 272 1283 272 1147.500 L 272 1012 261.500 1012 L 251 1012 251 1147.500 M 1394 1147.500 L 1394 1283 1405 1283 L 1416 1283 1416 1147.500 L 1416 1012 1405 1012 L 1394 1012 1394 1147.500 M 470 1153.500 L 470 1283 480.500 1283 L 491 1283 491 1153.500 L 491 1024 480.500 1024 L 470 1024 470 1153.500 M 1175 1153.500 L 1175 1283 1186 1283 L 1197 1283 1197 1153.500 L 1197 1024 1186 1024 L 1175 1024 1175 1153.500 M 503 1172 L 503 1283 514 1283 L 525 1283 525 1172 L 525 1061 514 1061 L 503 1061 503 1172 M 1142 1172 L 1142 1283 1153 1283 L 1164 1283 1164 1172 L 1164 1061 1153 1061 L 1142 1061 1142 1172 M 1606 1181 L 1606 1283 1617.500 1283 L 1629 1283 1629 1181 L 1629 1079 1617.500 1079 L 1606 1079 1606 1181 M 38 1181.500 L 38 1283 49 1283 L 60 1283 60 1181.500 L 60 1080 49 1080 L 38 1080 38 1181.500 M 538 1181.500 L 538 1283 549 1283 L 560 1283 560 1181.500 L 560 1080 549 1080 L 538 1080 538 1181.500 M 1107 1181.500 L 1107 1283 1118 1283 L 1129 1283 1129 1181.500 L 1129 1080 1118 1080 L 1107 1080 1107 1181.500" stroke="none" fill="#bb2126" fill-rule="evenodd"/><path d="M 0 833.501 L 0 1667.001 833.750 1666.751 L 1667.500 1666.500 1667.751 833.250 L 1668.001 0 834.001 0 L 0 0 0 833.501 M 0.498 834 C 0.498 1292.425, 0.611 1479.962, 0.750 1250.750 C 0.889 1021.537, 0.889 646.462, 0.750 417.250 C 0.611 188.037, 0.498 375.575, 0.498 834 M 821 833.500 L 821 1283 832 1283 L 843 1283 843 833.500 L 843 384 832 384 L 821 384 821 833.500 M 788 870 L 788 1283 799 1283 L 810 1283 810 870 L 810 457 799 457 L 788 457 788 870 M 857 870 L 857 1283 868 1283 L 879 1283 879 870 L 879 457 868 457 L 857 457 857 870 M 753 904 L 753 1283 763.500 1283 L 774 1283 774 904 L 774 525 763.500 525 L 753 525 753 904 M 892 904 L 892 1283 903 1283 L 914 1283 914 904 L 914 525 903 525 L 892 525 892 904 M 714 941 L 714 1283 725 1283 L 736 1283 736 941 L 736 599 725 599 L 714 599 714 941 M 931 941 L 931 1283 942 1283 L 953 1283 953 941 L 953 599 942 599 L 931 599 931 941 M 573 968.500 L 573 1283 583.500 1283 L 594 1283 594 968.500 L 594 654 583.500 654 L 573 654 573 968.500 M 1072 968.500 L 1072 1283 1083 1283 L 1094 1283 1094 968.500 L 1094 654 1083 654 L 1072 654 1072 968.500 M 677 972.500 L 677 1283 688 1283 L 699 1283 699 972.500 L 699 662 688 662 L 677 662 677 972.500 M 968 972.500 L 968 1283 979 1283 L 990 1283 990 972.500 L 990 662 979 662 L 968 662 968 972.500 M 607 978 L 607 1283 618 1283 L 629 1283 629 978 L 629 673 618 673 L 607 673 607 978 M 1038 978 L 1038 1283 1049 1283 L 1060 1283 1060 978 L 1060 673 1049 673 L 1038 673 1038 978 M 1003 979.966 L 1003 1283 1014.002 1283 L 1025.003 1283 1024.752 980.250 L 1024.500 677.500 1013.750 677.216 L 1003 676.932 1003 979.966 M 642 980.500 L 642 1283 653 1283 L 664 1283 664 980.500 L 664 678 653 678 L 642 678 642 980.500 M 342 1079.500 L 342 1283 352.500 1283 L 363 1283 363 1079.500 L 363 876 352.500 876 L 342 876 342 1079.500 M 1303 1079.500 L 1303 1283 1314 1283 L 1325 1283 1325 1079.500 L 1325 876 1314 876 L 1303 876 1303 1079.500 M 371 1107 L 371 1283 381.500 1283 L 392 1283 392 1107 L 392 931 381.500 931 L 371 931 371 1107 M 1274 1107 L 1274 1283 1285 1283 L 1296 1283 1296 1107 L 1296 931 1285 931 L 1274 931 1274 1107 M 311 1119 L 311 1283 321.500 1283 L 332 1283 332 1119 L 332 955 321.500 955 L 311 955 311 1119 M 1334 1119 L 1334 1283 1345 1283 L 1356 1283 1356 1119 L 1356 955 1345 955 L 1334 955 1334 1119 M 1241.699 963.634 C 1241.315 964.019, 1241 1036.033, 1241 1123.667 L 1241 1283 1252.003 1283 L 1263.006 1283 1262.753 1123.250 L 1262.500 963.500 1252.449 963.217 C 1246.922 963.062, 1242.084 963.249, 1241.699 963.634 M 404 1123.500 L 404 1283 414.500 1283 L 425 1283 425 1123.500 L 425 964 414.500 964 L 404 964 404 1123.500 M 1575 1126.967 L 1575 1283 1586.503 1283 L 1598.006 1283 1597.753 1127.250 L 1597.500 971.500 1586.250 971.217 L 1575 970.934 1575 1126.967 M 69 1127.500 L 69 1283 80.500 1283 L 92 1283 92 1127.500 L 92 972 80.500 972 L 69 972 69 1127.500 M 1543.667 979.667 C 1543.300 980.033, 1543 1048.433, 1543 1131.667 L 1543 1283 1554.500 1283 L 1566 1283 1566 1131 L 1566 979 1555.167 979 C 1549.208 979, 1544.033 979.300, 1543.667 979.667 M 100 1131.500 L 100 1283 111.500 1283 L 123 1283 123 1131.500 L 123 980 111.500 980 L 100 980 100 1131.500 M 131 1135 L 131 1283 142 1283 L 153 1283 153 1135 L 153 987 142 987 L 131 987 131 1135 M 1511 1135 L 1511 1283 1522.500 1283 L 1534 1283 1534 1135 L 1534 987 1522.500 987 L 1511 987 1511 1135 M 1208.667 994.667 C 1208.300 995.033, 1208 1060.058, 1208 1139.167 L 1208 1283 1219 1283 L 1230 1283 1230 1138.500 L 1230 994 1219.667 994 C 1213.983 994, 1209.033 994.300, 1208.667 994.667 M 1482 1138.500 L 1482 1283 1493 1283 L 1504 1283 1504 1138.500 L 1504 994 1493 994 L 1482 994 1482 1138.500 M 161 1139 L 161 1283 172 1283 L 183 1283 183 1139 L 183 995 172 995 L 161 995 161 1139 M 437 1139 L 437 1283 447.500 1283 L 458 1283 458 1139 L 458 995 447.500 995 L 437 995 437 1139 M 192 1142.500 L 192 1283 202.500 1283 L 213 1283 213 1142.500 L 213 1002 202.500 1002 L 192 1002 192 1142.500 M 280 1142.500 L 280 1283 291 1283 L 302 1283 302 1142.500 L 302 1002 291 1002 L 280 1002 280 1142.500 M 1365 1142.500 L 1365 1283 1376 1283 L 1387 1283 1387 1142.500 L 1387 1002 1376 1002 L 1365 1002 1365 1142.500 M 1453 1142.500 L 1453 1283 1464 1283 L 1475 1283 1475 1142.500 L 1475 1002 1464 1002 L 1453 1002 1453 1142.500 M 222 1146 L 222 1283 232.500 1283 L 243 1283 243 1146 L 243 1009 232.500 1009 L 222 1009 222 1146 M 1424 1146 L 1424 1283 1434.500 1283 L 1445 1283 1445 1146 L 1445 1009 1434.500 1009 L 1424 1009 1424 1146 M 251 1147.500 L 251 1283 261.500 1283 L 272 1283 272 1147.500 L 272 1012 261.500 1012 L 251 1012 251 1147.500 M 1394 1147.500 L 1394 1283 1405 1283 L 1416 1283 1416 1147.500 L 1416 1012 1405 1012 L 1394 1012 1394 1147.500 M 470 1153.500 L 470 1283 480.500 1283 L 491 1283 491 1153.500 L 491 1024 480.500 1024 L 470 1024 470 1153.500 M 1175 1153.500 L 1175 1283 1186 1283 L 1197 1283 1197 1153.500 L 1197 1024 1186 1024 L 1175 1024 1175 1153.500 M 503 1172 L 503 1283 514 1283 L 525 1283 525 1172 L 525 1061 514 1061 L 503 1061 503 1172 M 1142 1172 L 1142 1283 1153 1283 L 1164 1283 1164 1172 L 1164 1061 1153 1061 L 1142 1061 1142 1172 M 1606 1181 L 1606 1283 1617.500 1283 L 1629 1283 1629 1181 L 1629 1079 1617.500 1079 L 1606 1079 1606 1181 M 38 1181.500 L 38 1283 49 1283 L 60 1283 60 1181.500 L 60 1080 49 1080 L 38 1080 38 1181.500 M 538 1181.500 L 538 1283 549 1283 L 560 1283 560 1181.500 L 560 1080 549 1080 L 538 1080 538 1181.500 M 1107 1181.500 L 1107 1283 1118 1283 L 1129 1283 1129 1181.500 L 1129 1080 1118 1080 L 1107 1080 1107 1181.500" stroke="none" fill="#fbfbfb" fill-rule="evenodd"/></svg>