<?xml version="1.0" encoding="UTF-8" standalone="no"?>
<!-- Created with Inkscape (http://www.inkscape.org/) -->

<svg
   version="1.1"
   id="svg2"
   xml:space="preserve"
   width="311.17334"
   height="295.12"
   viewBox="0 0 311.17334 295.12"
   sodipodi:docname="IVADO-vertical_vertical-CMYK.eps"
   xmlns:inkscape="http://www.inkscape.org/namespaces/inkscape"
   xmlns:sodipodi="http://sodipodi.sourceforge.net/DTD/sodipodi-0.dtd"
   xmlns="http://www.w3.org/2000/svg"
   xmlns:svg="http://www.w3.org/2000/svg"><defs
     id="defs6" /><sodipodi:namedview
     id="namedview4"
     pagecolor="#ffffff"
     bordercolor="#666666"
     borderopacity="1.0"
     inkscape:pageshadow="2"
     inkscape:pageopacity="0.0"
     inkscape:pagecheckerboard="0" /><g
     id="g8"
     inkscape:groupmode="layer"
     inkscape:label="ink_ext_XXXXXX"
     transform="matrix(1.3333333,0,0,-1.3333333,0,295.12)"><g
       id="g10"
       transform="scale(0.1)"><path
         d="M 630.648,0 H 771.949 L 896.363,263.109 1023.12,0 h 141.19 L 897.477,560.379 630.648,0"
         style="fill:#4c4e56;fill-opacity:1;fill-rule:nonzero;stroke:none"
         id="path12" /><path
         d="M 728.715,567.75 H 587.418 L 463.031,304.648 336.246,567.75 H 195.09 L 461.918,7.42969 728.715,567.75"
         style="fill:#4c4e56;fill-opacity:1;fill-rule:nonzero;stroke:none"
         id="path14" /><path
         d="m 1376.25,131.43 c 90.27,0 111.95,9.742 125,13.949 26.21,8.5 47.23,24.922 62.48,47.441 15.55,22.969 23.83,53.211 23.83,88.629 0,37.563 -8.54,69.742 -25.8,95.039 -17.13,25.094 -43.71,41.883 -73.58,50.961 -14.88,4.52 -31.69,12.071 -111.93,13.012 z M 1253.86,0 v 567.75 h 118.31 c 79.53,0 136.21,-6.18 173.24,-19.34 54.38,-19.051 97.52,-52.48 128.16,-99.512 30.3,-46.527 45.67,-102.308 45.67,-165.976 0,-55.09 -12.21,-104.461 -36.27,-146.762 C 1658.5,93.082 1626.23,56.2813 1587.13,35.75 1547.64,15.0586 1494.14,0 1428.09,0 h -174.23"
         style="fill:#4c4e56;fill-opacity:1;fill-rule:nonzero;stroke:none"
         id="path16" /><path
         d="m 2130.29,154.852 c -73.94,-42.141 -172.52,-17.27 -214.04,58.179 -39.82,72.348 -14.41,170.981 57.6,212 71.81,40.891 165.11,18.93 209.69,-51.043 46.05,-72.207 21.05,-176.777 -53.25,-219.136 -24.08,-13.731 8.87,5.046 0,0 m 203.46,137.628 c 0,133.801 -96.29,245.661 -226.33,272.36 -116.87,23.992 -241.01,-28.461 -300.68,-134.371 -57.85,-102.68 -45.7,-238.52 33.71,-327.188 68.87,-76.8904 172.52,-109.28881 272.87,-87.6013 66.37,14.3594 130.08,54.1914 169.47,109.8713 35.51,50.281 50.96,104.597 50.96,166.929"
         style="fill:#4c4e56;fill-opacity:1;fill-rule:nonzero;stroke:none"
         id="path18" /><path
         d="M 0,0.0195313 H 112.34 V 567.75 H 0 V 0.0195313"
         style="fill:#4c4e56;fill-opacity:1;fill-rule:nonzero;stroke:none"
         id="path20" /><path
         d="m 1239.12,1685.12 c 4.97,-8.92 9.49,-17.83 13.57,-26.7 8.4,9.28 17.5,18.56 27.29,27.82 -2.95,11.28 -6.33,22.58 -10.09,33.91 -11.12,-11.64 -21.41,-23.32 -30.77,-35.03"
         style="fill:#44a63a;fill-opacity:1;fill-rule:nonzero;stroke:none"
         id="path22" /><path
         d="m 1269.28,1615.18 c 6.57,6.95 13.57,13.84 20.99,20.67 -1.33,9.26 -3,18.56 -4.96,27.87 -8.51,-8.67 -16.41,-17.44 -23.74,-26.29 2.85,-7.43 5.43,-14.85 7.71,-22.25"
         style="fill:#44a63a;fill-opacity:1;fill-rule:nonzero;stroke:none"
         id="path24" /><path
         d="m 1328.17,1220.96 c 0.62,-5.7 1.06,-11.48 1.41,-17.31 5.84,-4.4 11.87,-8.6 18.06,-12.65 -1.14,7.05 -2.43,14.04 -3.91,20.93 -5.31,2.89 -10.47,5.91 -15.56,9.03"
         style="fill:#44a63a;fill-opacity:1;fill-rule:nonzero;stroke:none"
         id="path26" /><path
         d="m 522.441,1623.49 c -29.961,33.97 -57.308,67.42 -84.421,103.32 -80.547,-1.02 -160.793,-3.23 -241.278,-6.55 49.637,-42.13 101.09,-82.77 153.449,-121.46 56.872,9.38 114.18,17.94 172.25,24.69"
         style="fill:#44a63a;fill-opacity:1;fill-rule:nonzero;stroke:none"
         id="path28" /><path
         d="m 1555.51,1024.81 c 6.64,-22.91 13.03,-45.978 19.22,-69.138 25.54,-11.703 50.07,-22.742 73.67,-33.313 -10.04,27.68 -20.47,55.36 -31.31,83.061 -20.02,6.13 -40.49,12.56 -61.58,19.39"
         style="fill:#44a63a;fill-opacity:1;fill-rule:nonzero;stroke:none"
         id="path30" /><path
         d="m 1105.94,1011.71 c -5.77,12.17 -10.99,24.2 -15.65,36.04 -9.29,-7.19 -18.96,-14.36 -29.08,-21.55 -3.33,-2.36 -6.71,-4.73 -10.15,-7.08 6.04,-19.839 13.34,-39.85 21.7,-59.89 13.08,12.891 26.15,26.36 39.07,40.418 -2.03,4.022 -4,8.052 -5.89,12.062"
         style="fill:#44a63a;fill-opacity:1;fill-rule:nonzero;stroke:none"
         id="path32" /><path
         d="m 594.742,1415.8 c -32.804,16.66 -66.504,35.17 -99.754,54.77 -49.992,-15.65 -98.172,-32.94 -144.953,-51.04 49.75,-19.85 98.145,-37.98 145.176,-54.42 31.894,17.63 64.848,34.81 99.531,50.69"
         style="fill:#44a63a;fill-opacity:1;fill-rule:nonzero;stroke:none"
         id="path34" /><path
         d="m 884.215,1207.59 c 5.785,13.1 12.23,25.54 19.219,37.39 -15.934,1.13 -32.454,2.71 -49.657,4.86 -10.324,-13.52 -19.937,-27.73 -28.754,-42.59 20.411,-0.39 40.137,-0.29 59.192,0.34"
         style="fill:#44a63a;fill-opacity:1;fill-rule:nonzero;stroke:none"
         id="path36" /><path
         d="m 915.766,1404.68 c -10.625,6.25 -21.278,13 -31.942,20.28 -14.914,-4.99 -29.922,-10.63 -44.941,-16.86 13.988,-7.42 27.93,-14.28 41.793,-20.55 11.711,6.25 23.426,11.96 35.09,17.13"
         style="fill:#44a63a;fill-opacity:1;fill-rule:nonzero;stroke:none"
         id="path38" /><path
         d="m 1168.34,1780.36 c 8.62,-9.15 16.62,-18.27 24.1,-27.38 9.74,12.19 20.36,24.52 31.95,36.99 3.78,4.06 7.69,8.15 11.68,12.24 -8.13,16.59 -17,33.19 -26.57,49.72 -18.65,-20.93 -35.27,-41.86 -49.76,-62.61 2.93,-2.99 5.79,-5.98 8.6,-8.96"
         style="fill:#44a63a;fill-opacity:1;fill-rule:nonzero;stroke:none"
         id="path40" /><path
         d="m 1362.33,1824.59 c 23,16.66 47.89,33.32 74.52,49.91 4.69,25.5 9.77,50.96 15.33,76.39 -33.4,-22.12 -65.07,-44.61 -95.31,-67.78 2.07,-20 3.94,-39.51 5.46,-58.52"
         style="fill:#44a63a;fill-opacity:1;fill-rule:nonzero;stroke:none"
         id="path42" /><path
         d="m 1603.65,1441.48 c -11.56,5.99 -23.36,11.44 -35.39,16.29 -9.55,-8.63 -19,-16.79 -28.42,-24.45 9.73,-5.08 19.4,-10.68 28.99,-16.82 11.62,7.86 23.22,16.21 34.82,24.98"
         style="fill:#44a63a;fill-opacity:1;fill-rule:nonzero;stroke:none"
         id="path44" /><path
         d="m 1675.88,1567.43 c -14.47,-15.88 -28.42,-30.96 -41.97,-45.19 15.27,-5.24 30.43,-11.35 45.37,-18.3 17.56,15.54 35.17,31.67 52.85,48.22 -17.93,5.95 -36.72,11.11 -56.25,15.27"
         style="fill:#44a63a;fill-opacity:1;fill-rule:nonzero;stroke:none"
         id="path46" /><path
         d="m 1559.8,1331.32 c -10.6,-4.61 -21.11,-8.79 -31.56,-12.54 7.58,-8.49 15.02,-17.48 22.4,-26.93 12.56,3.03 25.08,6.52 37.52,10.39 -9.25,10.16 -18.71,19.88 -28.36,29.08"
         style="fill:#326dbe;fill-opacity:1;fill-rule:nonzero;stroke:none"
         id="path48" /><path
         d="m 1408.6,1616.63 c 10.68,4.52 21.64,8.76 32.85,12.71 4.86,12.03 9.63,24.34 14.39,36.9 -13.31,-5.72 -26.38,-11.79 -39.11,-18.22 -2.6,-10.72 -5.32,-21.19 -8.13,-31.39"
         style="fill:#326dbe;fill-opacity:1;fill-rule:nonzero;stroke:none"
         id="path50" /><path
         d="m 1480.86,1676.49 c -5.08,-13.47 -10.1,-26.51 -15.12,-39.13 13.38,4.11 27.03,7.82 40.88,11.14 7.85,14.82 15.8,30.05 23.93,45.64 -16.72,-5.39 -33.32,-11.28 -49.69,-17.65"
         style="fill:#326dbe;fill-opacity:1;fill-rule:nonzero;stroke:none"
         id="path52" /><path
         d="m 1259.36,933.191 c 5.61,17.047 11.01,34.02 16.02,50.891 -3.02,3.18 -6.01,6.367 -8.95,9.559 -8.93,9.689 -17.46,19.369 -25.58,29.079 -4.7,-9.8 -9.66,-19.72 -14.91,-29.771 -1.73,-3.301 -3.47,-6.629 -5.25,-9.961 12.14,-16.797 25.13,-33.418 38.67,-49.797"
         style="fill:#326dbe;fill-opacity:1;fill-rule:nonzero;stroke:none"
         id="path54" /><path
         d="m 1642.75,2077.44 c 29.69,45.99 63.85,91.38 102.5,135.97 -76.17,-37.03 -150.05,-75.52 -223.8,-117.11 -11.63,-33.8 -21.98,-67.67 -31.22,-101.67 48.32,28.49 99.16,56.03 152.52,82.81"
         style="fill:#326dbe;fill-opacity:1;fill-rule:nonzero;stroke:none"
         id="path56" /><path
         d="m 1031.4,1152.86 c -0.46,-12.36 -0.17,-24.99 0.81,-37.84 11.76,5.94 23.07,12.07 33.88,18.42 -1.75,10.82 -2.93,21.45 -3.5,31.82 -9.93,-4.34 -20.32,-8.46 -31.19,-12.4"
         style="fill:#326dbe;fill-opacity:1;fill-rule:nonzero;stroke:none"
         id="path58" /><path
         d="m 1275.58,1591.7 c 1.32,-5.81 2.45,-11.61 3.43,-17.39 4.86,4.98 9.95,9.89 15.29,14.72 -0.17,7.29 -0.59,14.61 -1.2,21.94 -6.17,-6.33 -12.04,-12.75 -17.52,-19.27"
         style="fill:#326dbe;fill-opacity:1;fill-rule:nonzero;stroke:none"
         id="path60" /><path
         d="m 1691.5,1584.7 c 19.38,-4.59 38.46,-10.29 57.05,-17.05 22.68,21.37 45.79,43.69 68.89,66.26 -22.44,5.23 -46.64,9.15 -71.52,11.53 -19.1,-21.33 -37.15,-41.59 -54.42,-60.74"
         style="fill:#326dbe;fill-opacity:1;fill-rule:nonzero;stroke:none"
         id="path62" /><path
         d="m 462.703,1751.99 c 58.254,-0.86 115.75,-2.66 172.723,-5.7 -13.754,38.53 -23.293,77.49 -28.395,116.31 -73.926,13.39 -148.539,24.71 -223.07,34.25 22.191,-49.58 48.258,-97.05 78.742,-144.86"
         style="fill:#326dbe;fill-opacity:1;fill-rule:nonzero;stroke:none"
         id="path64" /><path
         d="m 927.012,1807.82 c 9.664,31.22 21.609,61.32 36.203,91.64 -34.762,19.75 -70.867,38.75 -109.129,57.49 -14.297,-38.13 -23.914,-77.14 -28.617,-116.71 34.929,-9.72 69.121,-20.58 101.543,-32.42"
         style="fill:#326dbe;fill-opacity:1;fill-rule:nonzero;stroke:none"
         id="path66" /><path
         d="m 1620.41,1432.34 c -2.95,-2.32 -5.92,-4.62 -8.85,-6.88 -9,-6.9 -17.93,-13.47 -26.77,-19.7 8.24,-5.82 16.4,-12.01 24.53,-18.58 2.67,-2.15 5.31,-4.34 7.95,-6.58 14.53,8.2 28.98,16.95 43.34,26.11 -13.05,9.18 -26.43,17.76 -40.2,25.63"
         style="fill:#326dbe;fill-opacity:1;fill-rule:nonzero;stroke:none"
         id="path68" /><path
         d="m 1636.56,1156.57 c 11.21,-20.69 21.98,-41.46 32.29,-62.21 23.73,-2.73 46.93,-5.19 69.65,-7.4 -13.93,24.06 -28.58,48.27 -44.05,72.53 -19.16,-1.48 -38.45,-2.47 -57.89,-2.92"
         style="fill:#326dbe;fill-opacity:1;fill-rule:nonzero;stroke:none"
         id="path70" /><path
         d="m 1067.51,920.531 c -18.42,-17.59 -36.53,-34.66 -54.43,-51.422 14.61,-34.398 30.3,-67.379 47.84,-101.129 15.54,24.532 31.74,49.532 48.66,75.231 -15.07,24.879 -29.53,51.23 -42.07,77.32"
         style="fill:#326dbe;fill-opacity:1;fill-rule:nonzero;stroke:none"
         id="path72" /><path
         d="m 1503.11,1106.58 c -10.55,2.76 -20.96,5.71 -31.23,8.84 2.63,-10.82 5.19,-21.9 7.63,-33.25 0.82,-3.73 1.6,-7.48 2.4,-11.26 16.2,-6.78 32.48,-13.12 48.72,-19.08 -5.49,17.61 -11.18,35.01 -17.06,52.08 -3.51,0.86 -7.01,1.76 -10.46,2.67"
         style="fill:#326dbe;fill-opacity:1;fill-rule:nonzero;stroke:none"
         id="path74" /><path
         d="m 1301.86,1705.93 c 12.46,10.69 25.81,21.32 40.06,31.87 -0.81,14.92 -1.92,29.99 -3.26,45.18 -16.8,-13.62 -32.54,-27.4 -47.13,-41.28 3.87,-12.08 7.32,-24 10.33,-35.77"
         style="fill:#326dbe;fill-opacity:1;fill-rule:nonzero;stroke:none"
         id="path76" /><path
         d="m 801.633,1220.01 c 7.183,11.81 14.805,23.09 22.777,33.87 -15.504,2.36 -31.488,5.08 -48.027,8.24 -5.438,1.04 -10.938,2.13 -16.488,3.25 -16.149,-16.6 -31.082,-34.03 -44.582,-51.99 26.992,-2.44 53.519,-4.2 79.421,-5.21 2.262,3.98 4.543,7.97 6.899,11.84"
         style="fill:#326dbe;fill-opacity:1;fill-rule:nonzero;stroke:none"
         id="path78" /><path
         d="m 754.215,1476.3 c 16.879,5.08 33.418,9.63 49.598,13.68 -10.516,10.04 -20.926,20.61 -31.18,31.75 -3.348,3.65 -6.664,7.34 -9.973,11.09 -28.969,-4.14 -57.793,-9.26 -85.996,-15.15 19.996,-16.48 40.301,-32.05 60.723,-46.58 5.648,1.8 11.258,3.54 16.828,5.21"
         style="fill:#326dbe;fill-opacity:1;fill-rule:nonzero;stroke:none"
         id="path80" /><path
         d="m 1461.19,1869.05 c -4.36,-21.44 -8.32,-42.24 -12.14,-62.37 23.65,13.37 48.65,26.51 74.76,39.36 10.72,26.31 22.13,52.54 34.41,78.66 -33.57,-17.84 -66.07,-36.42 -97.03,-55.65"
         style="fill:#326dbe;fill-opacity:1;fill-rule:nonzero;stroke:none"
         id="path82" /><path
         d="m 1493.96,1353.12 c 6.86,-6.04 13.6,-12.48 20.24,-19.28 10.19,3.36 20.33,7.14 30.45,11.27 -8.22,7.19 -16.62,13.99 -25.2,20.34 -8.53,-4.47 -17.03,-8.58 -25.49,-12.33"
         style="fill:#d11c2e;fill-opacity:1;fill-rule:nonzero;stroke:none"
         id="path84" /><path
         d="m 1408.45,1184.35 c 2.22,-9.37 4.26,-18.97 6.1,-28.82 10.48,-4.5 21.16,-8.69 31.93,-12.58 -3.21,11.31 -6.63,22.41 -10.27,33.25 -9.43,2.47 -18.68,5.17 -27.76,8.15"
         style="fill:#d11c2e;fill-opacity:1;fill-rule:nonzero;stroke:none"
         id="path86" /><path
         d="m 994.555,1391.26 c 6.755,2.94 13.545,5.64 20.335,8.13 -6.16,3.25 -12.29,6.7 -18.367,10.37 -8.71,-2.3 -17.437,-4.94 -26.168,-7.87 8.043,-3.83 16.106,-7.38 24.2,-10.63"
         style="fill:#d11c2e;fill-opacity:1;fill-rule:nonzero;stroke:none"
         id="path88" /><path
         d="m 858.992,935.91 c -4.601,28.738 -8.207,57.391 -8.832,85.43 -29.601,-8.67 -59.687,-16.51 -89.988,-24.129 -2.43,-35.672 -1.992,-71.66 1.207,-108.262 32.504,15.18 65.105,30.68 97.613,46.961"
         style="fill:#d11c2e;fill-opacity:1;fill-rule:nonzero;stroke:none"
         id="path90" /><path
         d="m 1691.58,1406.53 c 16.25,-12.96 31.58,-26.53 46,-40.5 21.07,11.04 42.6,23.27 64.08,36.39 -17.87,14.74 -36.78,28.96 -56.97,42.74 -17.97,-13.71 -35.67,-26.61 -53.11,-38.63"
         style="fill:#d11c2e;fill-opacity:1;fill-rule:nonzero;stroke:none"
         id="path92" /><path
         d="m 834.648,1497.18 c 18.141,3.93 35.762,7.21 52.829,9.84 -9.004,11.37 -17.657,23.43 -25.852,36.2 -21.211,-1.28 -43.109,-3.27 -65.613,-5.97 12.457,-14.09 25.371,-27.46 38.636,-40.07"
         style="fill:#d11c2e;fill-opacity:1;fill-rule:nonzero;stroke:none"
         id="path94" /><path
         d="m 1024.88,1029.79 c -1.24,4.31 -2.39,8.58 -3.5,12.82 -3.32,12.91 -6.05,25.56 -8.19,37.95 -11.51,-5.27 -23.506,-10.47 -36.022,-15.56 -4.121,-1.67 -8.301,-3.35 -12.539,-5.01 1.578,-20.37 4.543,-41.15 8.773,-62.17 17.286,10.1 34.488,20.74 51.478,31.97"
         style="fill:#d11c2e;fill-opacity:1;fill-rule:nonzero;stroke:none"
         id="path96" /><path
         d="m 1365.55,982.719 c -1.87,-17.938 -4.1,-36.379 -6.55,-55.297 19.75,-17.363 38.85,-33.781 57.69,-49.774 -0.47,23.024 -1,46.012 -1.74,68.84 -16.19,11.211 -32.78,23.313 -49.4,36.231"
         style="fill:#d11c2e;fill-opacity:1;fill-rule:nonzero;stroke:none"
         id="path98" /><path
         d="m 1115.95,1714.04 c 11.8,-8.3 22.67,-16.71 32.76,-25.22 7.57,13.38 16.22,26.98 26.12,40.83 -9.75,11.69 -20.25,23.27 -31.57,34.72 -10.55,-16.97 -19.65,-33.77 -27.31,-50.33"
         style="fill:#d11c2e;fill-opacity:1;fill-rule:nonzero;stroke:none"
         id="path100" /><path
         d="m 1570.66,1218.57 c -10.11,-1.09 -20.17,-1.94 -30.15,-2.55 5.23,-9.64 10.39,-19.55 15.49,-29.78 1.7,-3.39 3.36,-6.81 5.04,-10.25 15.91,-0.94 31.75,-1.42 47.42,-1.5 -9.07,15.47 -18.36,30.59 -27.87,45.23 -3.3,-0.41 -6.63,-0.79 -9.93,-1.15"
         style="fill:#d11c2e;fill-opacity:1;fill-rule:nonzero;stroke:none"
         id="path102" /><path
         d="m 1664.63,1311.23 c -15.33,-6.62 -30.55,-12.69 -45.67,-18.13 10.92,-13.35 21.72,-27.51 32.49,-42.39 18.71,4.04 37.05,8.64 54.9,13.58 -13.19,15.9 -27.05,31.6 -41.72,46.94"
         style="fill:#d11c2e;fill-opacity:1;fill-rule:nonzero;stroke:none"
         id="path104" /><path
         d="m 1600.55,1786.28 c -12.01,-21.49 -23.11,-42.15 -33.58,-61.98 21.16,5.88 42.68,11.14 64.34,15.79 16.8,24.59 34.16,49.17 52.23,73.69 -27.33,-8.3 -55.16,-17.44 -82.99,-27.5"
         style="fill:#d11c2e;fill-opacity:1;fill-rule:nonzero;stroke:none"
         id="path106" /><path
         d="m 1642.62,1648.13 c -18.03,-0.82 -36.45,-2.32 -55.08,-4.58 -2.5,-3.82 -4.96,-7.6 -7.4,-11.33 -7.48,-11.44 -14.75,-22.5 -21.9,-33.2 11.21,0.19 22.44,0.05 33.65,-0.45 3.68,-0.16 7.35,-0.36 11.02,-0.61 12.95,16.2 26.15,32.96 39.71,50.17"
         style="fill:#d11c2e;fill-opacity:1;fill-rule:nonzero;stroke:none"
         id="path108" /><path
         d="m 1384.46,1544.15 c -2.41,-5.94 -4.9,-11.75 -7.49,-17.47 6.12,2.07 12.29,3.99 18.54,5.72 3.9,6.73 7.66,13.61 11.32,20.64 -7.56,-2.73 -15.04,-5.69 -22.37,-8.89"
         style="fill:#f15421;fill-opacity:1;fill-rule:nonzero;stroke:none"
         id="path110" /><path
         d="m 959.441,1467.38 c 10.504,1.85 20.801,3.36 30.891,4.53 -5.781,6.68 -11.344,13.69 -16.66,21.04 -12.285,-0.36 -24.856,-1.13 -37.695,-2.33 7.57,-8.16 15.406,-15.92 23.464,-23.24"
         style="fill:#f15421;fill-opacity:1;fill-rule:nonzero;stroke:none"
         id="path112" /><path
         d="m 1413.42,1328.51 c 3.94,-4.02 7.8,-8.18 11.56,-12.52 6.8,0.39 13.6,1.04 20.38,1.9 -4.94,4.82 -10.01,9.43 -15.22,13.84 -5.58,-1.25 -11.15,-2.32 -16.72,-3.22"
         style="fill:#f15421;fill-opacity:1;fill-rule:nonzero;stroke:none"
         id="path114" /><path
         d="m 1544.36,1271.11 c -11,-2.46 -21.94,-4.56 -32.78,-6.24 6.37,-9.76 12.62,-19.97 18.73,-30.62 12.93,0.56 25.82,1.55 38.65,2.91 -8,11.72 -16.19,23.05 -24.6,33.95"
         style="fill:#f15421;fill-opacity:1;fill-rule:nonzero;stroke:none"
         id="path116" /><path
         d="m 1710.86,1160.79 c 15.39,-25.21 30,-50.27 43.81,-75.26 27.87,-2.3 54.98,-4.35 81.37,-6.26 -17.66,29.44 -36.68,59.11 -57.29,88.92 -22.44,-2.79 -45.04,-5.26 -67.89,-7.4"
         style="fill:#f15421;fill-opacity:1;fill-rule:nonzero;stroke:none"
         id="path118" /><path
         d="m 1231.95,1179.81 c -3.46,5.25 -6.67,10.53 -9.69,15.84 -2.64,-5.09 -5.41,-10.15 -8.4,-15.2 3.1,-6.77 6.52,-13.5 10.23,-20.17 2.83,6.48 5.45,12.99 7.86,19.53"
         style="fill:#f15421;fill-opacity:1;fill-rule:nonzero;stroke:none"
         id="path120" /><path
         d="m 1105.34,2055.64 c 22.11,-26.13 42.85,-52.26 62.42,-78.69 38.12,38.27 80.26,75.13 126.57,111.11 -6.59,39.11 -13.14,78.25 -19.58,117.46 -59.46,-46.89 -117.93,-94.04 -169.41,-149.88"
         style="fill:#f15421;fill-opacity:1;fill-rule:nonzero;stroke:none"
         id="path122" /><path
         d="m 1590.57,836.211 c -24.46,14.531 -50.02,29.699 -76.84,45.82 4.26,-30.152 8.52,-60.222 12.89,-90.422 32.79,-24.07 63.42,-46.519 92.19,-67.847 -9.28,37.558 -18.65,75.027 -28.24,112.449"
         style="fill:#f15421;fill-opacity:1;fill-rule:nonzero;stroke:none"
         id="path124" /><path
         d="m 1154.96,1049.63 c -6.92,12.48 -13.13,24.84 -18.62,37.06 -9.01,-8.36 -18.54,-16.7 -28.63,-25.01 5.45,-15.15 11.78,-30.4 18.91,-45.7 9.89,11.18 19.35,22.38 28.34,33.65"
         style="fill:#f15421;fill-opacity:1;fill-rule:nonzero;stroke:none"
         id="path126" /><path
         d="m 876.039,1053.88 c 21.367,6.56 42.516,13.66 63.336,21.35 -0.234,4.41 -0.395,8.77 -0.492,13.1 -0.285,13.15 0.062,25.93 0.984,38.38 -13.48,-2.99 -27.5,-5.8 -42.094,-8.43 -4.8,-0.86 -9.668,-1.7 -14.605,-2.52 -3.758,-20.06 -6.121,-40.74 -7.129,-61.88"
         style="fill:#f15421;fill-opacity:1;fill-rule:nonzero;stroke:none"
         id="path128" /><path
         d="m 1401.26,1028.34 c -10.31,6.41 -20.38,12.95 -30.18,19.58 -0.66,-10.94 -1.46,-22.06 -2.45,-33.4 -0.3,-3.72 -0.67,-7.48 -1.01,-11.25 15.21,-12.168 30.8,-23.989 46.58,-35.43 -0.7,18.23 -1.55,36.33 -2.65,54.2 -3.46,2.09 -6.88,4.19 -10.29,6.3"
         style="fill:#f15421;fill-opacity:1;fill-rule:nonzero;stroke:none"
         id="path130" /><path
         d="m 1094.33,1847.81 c 17.82,-14.14 34.08,-28.23 48.89,-42.27 16.36,22.44 34.78,44.48 54.76,65.68 -12.56,20.52 -26.16,40.92 -40.69,61.14 -23.29,-27.77 -44.11,-55.69 -62.96,-84.55"
         style="fill:#f15421;fill-opacity:1;fill-rule:nonzero;stroke:none"
         id="path132" /><path
         d="m 636.129,1320.01 c 21.129,15.51 42.887,30.88 66.16,45.12 -25.238,10.78 -51.371,22.78 -78.367,36.03 -32.902,-14.93 -64.484,-30.89 -94.649,-47.71 36.563,-11.96 71.954,-23.04 106.856,-33.44"
         style="fill:#f15421;fill-opacity:1;fill-rule:nonzero;stroke:none"
         id="path134" /><path
         d="m 1605.57,1353.56 c -9.4,-5.02 -18.71,-9.74 -27.97,-14.13 7.28,-7.36 14.49,-15.06 21.66,-23.13 2.36,-2.66 4.72,-5.37 7.11,-8.1 15.02,5.16 29.94,10.83 44.65,16.91 -11.78,11.71 -23.83,22.91 -36.23,33.47 -3.07,-1.71 -6.16,-3.37 -9.22,-5.02"
         style="fill:#f15421;fill-opacity:1;fill-rule:nonzero;stroke:none"
         id="path136" /><path
         d="m 1599.84,1567.31 c -8.14,-10.19 -16.13,-20 -23.98,-29.45 10.18,-2.01 20.31,-4.37 30.41,-7.12 3.3,-0.89 6.58,-1.83 9.88,-2.81 13.58,13.84 27.27,28.25 41.17,43.11 -16.07,2.84 -32.57,5 -49.43,6.39 -2.69,-3.42 -5.37,-6.79 -8.05,-10.12"
         style="fill:#f15421;fill-opacity:1;fill-rule:nonzero;stroke:none"
         id="path138" /><path
         d="m 1498.36,1594.58 c 12.68,1.67 25.47,2.87 38.3,3.62 9.32,13.65 18.69,27.75 28.28,42.26 -15.43,-2.37 -30.98,-5.27 -46.46,-8.73 -6.82,-12.84 -13.48,-25.23 -20.12,-37.15"
         style="fill:#f15421;fill-opacity:1;fill-rule:nonzero;stroke:none"
         id="path140" /><path
         d="m 1349.81,1548.94 c 5.95,3.15 12.02,6.16 18.21,9.02 2.78,7.19 5.38,14.5 7.87,21.92 -7.43,-4.07 -14.7,-8.33 -21.75,-12.79 -1.33,-6.13 -2.78,-12.18 -4.33,-18.15"
         style="fill:#4e4f56;fill-opacity:1;fill-rule:nonzero;stroke:none"
         id="path142" /><path
         d="m 1109.04,1535.19 c -0.51,6.15 -0.71,12.44 -0.65,18.81 -7.07,3.96 -14.43,7.71 -22.11,11.27 0.75,-7.72 1.9,-15.28 3.46,-22.68 6.65,-2.31 13.09,-4.78 19.3,-7.4"
         style="fill:#4e4f56;fill-opacity:1;fill-rule:nonzero;stroke:none"
         id="path144" /><path
         d="m 1143.31,1617.22 c 6.99,-5.2 13.6,-10.51 19.79,-15.95 3.31,8.34 7.11,16.76 11.48,25.27 -6.27,7.29 -12.99,14.44 -20.19,21.46 -4.39,-10.37 -8.08,-20.63 -11.08,-30.78"
         style="fill:#4e4f56;fill-opacity:1;fill-rule:nonzero;stroke:none"
         id="path146" /><path
         d="m 1189.8,1183.44 c -2.45,5.75 -4.66,11.5 -6.63,17.25 -3.75,-4.5 -7.64,-8.94 -11.75,-13.34 1.75,-7.18 3.86,-14.37 6.29,-21.56 4.26,5.81 8.28,11.69 12.09,17.65"
         style="fill:#4e4f56;fill-opacity:1;fill-rule:nonzero;stroke:none"
         id="path148" /><path
         d="m 1246.98,1158.87 c -2.85,-6.97 -5.95,-13.96 -9.29,-20.94 5.45,-8.24 11.3,-16.34 17.53,-24.36 2.89,8.68 5.51,17.35 7.86,26.03 -5.67,6.35 -11.05,12.78 -16.1,19.27"
         style="fill:#4e4f56;fill-opacity:1;fill-rule:nonzero;stroke:none"
         id="path150" /><path
         d="m 1069.05,1238.98 c 1.52,6.04 3.29,11.93 5.28,17.7 -6.43,-1.66 -13.07,-3.15 -19.83,-4.52 -3.23,-6.81 -6.12,-13.83 -8.68,-21.01 7.96,2.41 15.71,5.03 23.23,7.83"
         style="fill:#4e4f56;fill-opacity:1;fill-rule:nonzero;stroke:none"
         id="path152" /><path
         d="m 1106.49,1213.31 c 0.06,6.17 0.4,12.23 0.98,18.23 -5.73,-2.77 -11.62,-5.43 -17.69,-7.96 -1.46,-7.22 -2.57,-14.56 -3.29,-22.02 6.89,3.76 13.56,7.67 20,11.75"
         style="fill:#4e4f56;fill-opacity:1;fill-rule:nonzero;stroke:none"
         id="path154" /><path
         d="m 1350.8,1166.97 c -7.05,4.13 -13.89,8.42 -20.52,12.87 -0.02,-7.59 -0.23,-15.26 -0.65,-23.05 7.5,-5.96 15.28,-11.71 23.28,-17.27 -0.48,9.26 -1.19,18.41 -2.11,27.45"
         style="fill:#4e4f56;fill-opacity:1;fill-rule:nonzero;stroke:none"
         id="path156" /><path
         d="m 1356.59,1241.36 c 1.56,-5.52 2.99,-11.15 4.29,-16.85 6.36,-3.3 12.85,-6.4 19.42,-9.3 -2.25,6.78 -4.66,13.44 -7.24,19.99 -5.56,1.91 -11.05,3.97 -16.47,6.16"
         style="fill:#4e4f56;fill-opacity:1;fill-rule:nonzero;stroke:none"
         id="path158" /><path
         d="m 1486.64,1500.25 c 9.36,-1.21 18.69,-2.83 28.03,-4.85 8.55,8.81 17.09,18.05 25.66,27.64 -11.13,1.33 -22.38,2.2 -33.69,2.58 -6.68,-8.83 -13.34,-17.27 -20,-25.37"
         style="fill:#4e4f56;fill-opacity:1;fill-rule:nonzero;stroke:none"
         id="path160" /><path
         d="m 1482.48,1305.11 c 5.88,-7.24 11.6,-14.84 17.25,-22.79 10.48,1.38 20.99,3.13 31.46,5.23 -7.19,8.66 -14.53,16.96 -22.07,24.84 -8.92,-2.76 -17.81,-5.19 -26.64,-7.28"
         style="fill:#4e4f56;fill-opacity:1;fill-rule:nonzero;stroke:none"
         id="path162" /><path
         d="m 1490.7,1164.94 c -11.54,1.82 -22.97,3.93 -34.13,6.39 3.53,-11.41 6.87,-23.19 10.09,-35.3 13.13,-4.27 26.37,-8.14 39.67,-11.69 -5,13.82 -10.22,27.38 -15.63,40.6"
         style="fill:#4e4f56;fill-opacity:1;fill-rule:nonzero;stroke:none"
         id="path164" /><path
         d="m 1424.71,1398.77 c 5.09,-2.31 10.13,-4.79 15.1,-7.45 6.43,2.89 12.79,6.04 19.09,9.4 -6.27,2.69 -12.63,5.14 -19.09,7.3 -4.99,-3.24 -10.03,-6.35 -15.1,-9.25"
         style="fill:#4e4f56;fill-opacity:1;fill-rule:nonzero;stroke:none"
         id="path166" /><path
         d="m 1521.39,1215.17 c -11.37,-0.31 -22.58,-0.29 -33.68,0.11 5.02,-10.74 9.91,-21.88 14.65,-33.42 13.13,-1.89 26.31,-3.37 39.44,-4.48 -6.62,12.94 -13.4,25.55 -20.41,37.79"
         style="fill:#4e4f56;fill-opacity:1;fill-rule:nonzero;stroke:none"
         id="path168" /><path
         d="m 1024.44,1438.22 c -5.12,4.32 -10.14,8.82 -15.05,13.53 -9.08,-0.72 -18.292,-1.75 -27.617,-3.08 6.747,-5.22 13.633,-10.17 20.647,-14.83 7.4,1.7 14.74,3.15 22.02,4.38"
         style="fill:#4e4f56;fill-opacity:1;fill-rule:nonzero;stroke:none"
         id="path170" /><path
         d="m 1522.36,1577.48 c -12.03,-0.98 -24.1,-2.41 -36.11,-4.3 -5.66,-9.79 -11.31,-19.25 -16.99,-28.35 10,0.67 20.04,0.96 30.13,0.87 7.66,10.23 15.3,20.84 22.97,31.78"
         style="fill:#4e4f56;fill-opacity:1;fill-rule:nonzero;stroke:none"
         id="path172" /><path
         d="m 1107.67,1188.01 c -7.16,-4.17 -14.61,-8.21 -22.36,-12.11 0.06,-9.67 0.67,-19.51 1.8,-29.46 8.4,5.5 16.46,11.17 24.17,17 -1.62,8.31 -2.83,16.51 -3.61,24.57"
         style="fill:#4e4f56;fill-opacity:1;fill-rule:nonzero;stroke:none"
         id="path174" /><path
         d="m 981.555,1265.23 c 4.492,7.56 9.297,14.79 14.367,21.73 -9.574,0.48 -19.375,1.26 -29.406,2.33 -7.078,-7.77 -13.797,-15.95 -20.129,-24.5 12.015,-0.19 23.734,-0.05 35.168,0.44"
         style="fill:#4e4f56;fill-opacity:1;fill-rule:nonzero;stroke:none"
         id="path176" /><path
         d="m 1015.87,1360.13 c -6.83,2.07 -13.69,4.32 -20.573,6.81 -7.82,-3.78 -15.547,-7.86 -23.156,-12.24 8.82,-2.31 17.589,-4.33 26.289,-6.05 5.73,4.02 11.54,7.88 17.44,11.48"
         style="fill:#4e4f56;fill-opacity:1;fill-rule:nonzero;stroke:none"
         id="path178" /><path
         d="m 1321.06,1084.89 c -2.05,-11.53 -4.39,-23.26 -7.04,-35.2 11.4,-10.76 23.25,-21.28 35.49,-31.55 1.25,14.39 2.27,28.65 2.99,42.77 -10.88,7.85 -21.38,15.84 -31.44,23.98"
         style="fill:#4e4f56;fill-opacity:1;fill-rule:nonzero;stroke:none"
         id="path180" /><path
         d="m 1364.76,1640.63 c 10.48,6.33 21.41,12.46 32.71,18.38 2.75,12.27 5.34,24.76 7.83,37.43 -13.36,-7.95 -26.27,-16.18 -38.63,-24.67 -0.45,-10.57 -1.08,-20.95 -1.91,-31.14"
         style="fill:#4e4f56;fill-opacity:1;fill-rule:nonzero;stroke:none"
         id="path182" /><path
         d="m 1452.26,1121.74 c -11.59,3.9 -22.95,8.09 -34.04,12.53 1.85,-11.79 3.51,-23.89 4.97,-36.29 12.9,-6.57 26,-12.78 39.25,-18.68 -3.2,14.38 -6.58,28.54 -10.18,42.44"
         style="fill:#4e4f56;fill-opacity:1;fill-rule:nonzero;stroke:none"
         id="path184" /><path
         d="m 1188.39,1095.46 c -5.74,9.56 -10.98,19.08 -15.69,28.57 -6.41,-7.34 -13.2,-14.63 -20.4,-21.88 4.73,-11.68 10.14,-23.38 16.12,-35.07 7.03,9.41 13.7,18.86 19.97,28.38"
         style="fill:#4e4f56;fill-opacity:1;fill-rule:nonzero;stroke:none"
         id="path186" /><path
         d="m 1263.56,1074.57 c -4.28,-10.88 -8.93,-21.88 -13.97,-33.03 10,-12.55 20.6,-24.95 31.67,-37.17 3.92,13.81 7.52,27.52 10.8,41.14 -10.01,9.61 -19.54,19.29 -28.5,29.06"
         style="fill:#4e4f56;fill-opacity:1;fill-rule:nonzero;stroke:none"
         id="path188" /><path
         d="m 1247.7,1092.59 c -7.15,8.48 -13.85,17 -20.06,25.56 -4.52,-8.36 -9.4,-16.74 -14.61,-25.15 6.68,-10.73 13.94,-21.38 21.67,-31.95 4.66,10.54 9.01,21.04 13,31.54"
         style="fill:#4e4f56;fill-opacity:1;fill-rule:nonzero;stroke:none"
         id="path190" /><path
         d="m 1401.67,1592.9 c -2.54,-8.24 -5.21,-16.32 -7.98,-24.21 8.25,3.12 16.66,6.01 25.21,8.65 4.35,9.23 8.59,18.66 12.71,28.3 -10.17,-3.94 -20.16,-8.19 -29.94,-12.74"
         style="fill:#4e4f56;fill-opacity:1;fill-rule:nonzero;stroke:none"
         id="path192" /><path
         d="m 1051.46,1511.29 c 7.35,-1.02 14.49,-2.22 21.48,-3.59 -2.18,5.81 -4.16,11.76 -5.85,17.86 -8.22,2.49 -16.71,4.73 -25.47,6.73 2.96,-7.22 6.23,-14.23 9.84,-21"
         style="fill:#4e4f56;fill-opacity:1;fill-rule:nonzero;stroke:none"
         id="path194" /><path
         d="m 1272.4,1183.7 c -4.22,4.57 -8.3,9.18 -12.18,13.89 -1.52,-5.5 -3.17,-11.01 -5.02,-16.53 4.24,-6.15 8.74,-12.19 13.47,-18.13 1.44,6.92 2.7,13.84 3.73,20.77"
         style="fill:#4e4f56;fill-opacity:1;fill-rule:nonzero;stroke:none"
         id="path196" /><path
         d="m 1406.1,1086.69 c -11.43,5.92 -22.48,12.08 -33.21,18.44 0,-11.84 -0.25,-23.93 -0.77,-36.29 12.36,-8.75 25.04,-17.18 37.94,-25.32 -1.1,14.57 -2.39,28.97 -3.96,43.17"
         style="fill:#4e4f56;fill-opacity:1;fill-rule:nonzero;stroke:none"
         id="path198" /><path
         d="m 1833.4,1630.05 c -23.2,-23.27 -46.41,-46.32 -69.16,-68.39 22.52,-8.89 42.99,-19.61 62.67,-30.5 27.35,23.48 54.5,46.99 82.95,71.84 -23.94,10.34 -49.04,19.16 -76.46,27.05"
         style="fill:#4e4f56;fill-opacity:1;fill-rule:nonzero;stroke:none"
         id="path200" /><path
         d="m 1734.26,1738.39 c -18.85,-23.28 -37.27,-46.57 -55.3,-69.67 22.09,0.01 43.97,-0.99 65.38,-2.99 23.9,26.42 48.53,52.85 74.12,79.44 -27.23,-0.91 -55.73,-3.21 -84.2,-6.78"
         style="fill:#4e4f56;fill-opacity:1;fill-rule:nonzero;stroke:none"
         id="path202" /><path
         d="m 619.078,1529.79 c -25.976,22.26 -51.777,46.61 -75.523,71.39 -55.18,-6.63 -109.86,-14.39 -164.157,-23.18 41.165,-27.98 80.883,-53.91 121.27,-79.27 38.578,11.37 78.098,21.8 118.41,31.06"
         style="fill:#4e4f56;fill-opacity:1;fill-rule:nonzero;stroke:none"
         id="path204" /><path
         d="m 1729.92,1454.59 c -16.09,9.93 -32.93,19.16 -50.47,27.48 -14.59,-13.01 -28.86,-25.28 -42.91,-36.76 13.71,-8.38 27.29,-17.64 40.75,-27.7 17.73,11.8 35.31,24.2 52.63,36.98"
         style="fill:#4e4f56;fill-opacity:1;fill-rule:nonzero;stroke:none"
         id="path206" /><path
         d="m 941.27,1051.16 c -21.645,-7.99 -43.696,-15.12 -65.778,-22.16 -0.082,-26.56 2.071,-54.07 6.227,-81.5 23.511,12.352 47.011,25.02 70.609,38.129 -5.18,22.551 -8.871,44.431 -11.058,65.531"
         style="fill:#4e4f56;fill-opacity:1;fill-rule:nonzero;stroke:none"
         id="path208" /><path
         d="m 667.734,1194.82 c -36.832,4.13 -74.382,8.91 -113.043,14.31 -27.351,-29.85 -51.769,-60.77 -72.722,-92.88 48.535,-0.44 95.781,-0.21 141.957,0.74 12.383,26.71 26.976,52.7 43.808,77.83"
         style="fill:#4e4f56;fill-opacity:1;fill-rule:nonzero;stroke:none"
         id="path210" /><path
         d="m 1116.91,1139.74 c -8.25,-5.97 -16.93,-11.84 -26.06,-17.6 2.37,-12.25 5.44,-24.64 9.16,-37.13 9.47,7.88 18.49,15.87 27.07,24 -3.94,10.37 -7.35,20.63 -10.17,30.73"
         style="fill:#4e4f56;fill-opacity:1;fill-rule:nonzero;stroke:none"
         id="path212" /><path
         d="m 969.797,1243.24 c -12.203,-0.28 -24.832,-0.2 -37.902,0.23 -6.879,-11.01 -13.165,-22.52 -18.829,-34.48 15.247,0.98 30,2.33 44.282,4.08 3.66,10.47 7.824,20.53 12.449,30.17"
         style="fill:#4e4f56;fill-opacity:1;fill-rule:nonzero;stroke:none"
         id="path214" /><path
         d="m 942.359,1150.29 c 1.149,8.27 2.551,16.39 4.235,24.29 1.125,5.29 2.39,10.48 3.75,15.6 -15.008,-1.69 -30.696,-2.98 -47.09,-3.89 -5.883,-14.99 -10.848,-30.57 -14.863,-46.63 18.675,3.17 36.672,6.7 53.968,10.63"
         style="fill:#4e4f56;fill-opacity:1;fill-rule:nonzero;stroke:none"
         id="path216" /><path
         d="m 1007.48,1144.73 c -13.402,-4.25 -27.464,-8.25 -42.23,-11.99 -1.602,-15.73 -2.207,-31.88 -1.848,-48.36 16.106,6.36 31.582,12.95 46.418,19.82 -1.57,13.89 -2.34,27.42 -2.34,40.53"
         style="fill:#4e4f56;fill-opacity:1;fill-rule:nonzero;stroke:none"
         id="path218" /><path
         d="m 1481.07,983.129 c -16.58,8.551 -33.55,17.801 -50.71,27.791 0.98,-18.221 1.74,-36.979 2.35,-56.272 20.5,-13.988 40.26,-27.238 59.61,-40.046 -3.61,22.929 -7.32,45.839 -11.25,68.527"
         style="fill:#4e4f56;fill-opacity:1;fill-rule:nonzero;stroke:none"
         id="path220" /><path
         d="m 1122.52,1631.5 c 3.74,10.85 8.26,21.89 13.59,33.15 -9.59,8.22 -19.87,16.23 -30.81,24.05 -5.15,-13.55 -9.29,-26.9 -12.44,-39.99 10.51,-5.55 20.38,-11.3 29.66,-17.21"
         style="fill:#4e4f56;fill-opacity:1;fill-rule:nonzero;stroke:none"
         id="path222" /><path
         d="m 1026.88,1677.86 c 15.16,-5.6 29.29,-11.5 42.57,-17.62 3.78,13.87 8.66,28.13 14.72,42.76 -14.15,9.11 -29.29,17.94 -45.38,26.49 -5.37,-17.58 -9.31,-34.81 -11.91,-51.63"
         style="fill:#4e4f56;fill-opacity:1;fill-rule:nonzero;stroke:none"
         id="path224" /><path
         d="m 1059.53,1601.71 c 0.67,10.88 2.04,22.08 4.18,33.58 -12.51,5.98 -25.78,11.64 -39.75,16.98 -1,-13.58 -1.09,-26.84 -0.31,-39.72 12.6,-3.32 24.54,-6.94 35.88,-10.84"
         style="fill:#4e4f56;fill-opacity:1;fill-rule:nonzero;stroke:none"
         id="path226" /><path
         d="m 929.371,1461.19 c -8.504,8.06 -16.844,16.62 -24.941,25.69 -16.008,-2.25 -32.367,-5.11 -49.016,-8.54 11.32,-9.81 22.848,-19.05 34.531,-27.7 13.375,4.04 26.535,7.55 39.426,10.55"
         style="fill:#4e4f56;fill-opacity:1;fill-rule:nonzero;stroke:none"
         id="path228" /><path
         d="m 812.816,1422.53 c 16.305,6.96 32.422,13.21 48.282,18.74 -12.348,9.29 -24.657,19.31 -36.887,30.05 -20.398,-4.96 -41.145,-10.72 -62.106,-17.26 16.883,-11.27 33.817,-21.78 50.711,-31.53"
         style="fill:#4e4f56;fill-opacity:1;fill-rule:nonzero;stroke:none"
         id="path230" /><path
         d="m 880.141,1566.92 c 18.558,0.68 36.347,0.81 53.351,0.41 -4.922,12.86 -9.172,26.35 -12.637,40.47 -20.328,2.44 -41.582,4.3 -63.71,5.58 6.82,-16.14 14.535,-31.65 22.996,-46.46"
         style="fill:#4e4f56;fill-opacity:1;fill-rule:nonzero;stroke:none"
         id="path232" /><path
         d="m 722.477,1638.45 c 30.793,1.02 61.847,1.16 92.503,0.27 -7.402,21.12 -13.496,43.49 -17.886,67.09 -37.539,5.24 -75.641,8.75 -114.301,12.15 10.746,-26.72 24.359,-53.94 39.684,-79.51"
         style="fill:#4e4f56;fill-opacity:1;fill-rule:nonzero;stroke:none"
         id="path234" /><path
         d="m 826.25,1726.71 c 30.313,-4.65 58.516,-9.86 84.727,-15.61 1.003,22.36 4,45.8 9.375,70.24 -31.118,11.45 -63.868,21.96 -97.293,31.41 -1.922,-28.23 -0.832,-57.55 3.191,-86.04"
         style="fill:#4e4f56;fill-opacity:1;fill-rule:nonzero;stroke:none"
         id="path236" /><path
         d="m 748.445,1291.17 c 3.59,3.46 7.2,6.85 10.84,10.19 11.059,10.15 22.332,19.73 33.75,28.75 -15.039,5.14 -30.437,10.74 -46.222,16.85 -5.192,2.02 -10.426,4.08 -15.715,6.2 -21.95,-13.27 -42.938,-27.42 -62.7,-42.19 27.387,-7.42 54.102,-14.06 80.047,-19.8"
         style="fill:#4e4f56;fill-opacity:1;fill-rule:nonzero;stroke:none"
         id="path238" /><path
         d="m 757.355,1123.83 c 6.899,21.29 15.489,42.18 25.59,62.23 -27.144,1.13 -54.972,3.04 -83.304,5.67 -16.082,-24.12 -30.368,-48.6 -43.055,-73.71 34.219,1.48 67.727,3.39 100.769,5.81"
         style="fill:#4e4f56;fill-opacity:1;fill-rule:nonzero;stroke:none"
         id="path240" /><path
         d="m 742.23,1388.3 c 14.434,7.87 28.817,15.13 43.09,21.87 -13.386,7.78 -26.937,16.08 -40.636,24.94 -4.465,2.89 -8.938,5.84 -13.434,8.83 -26.469,-9.02 -52.344,-18.96 -77.266,-29.61 24.969,-12.24 49.672,-23.61 73.969,-33.97 4.766,2.7 9.524,5.36 14.277,7.94"
         style="fill:#4e4f56;fill-opacity:1;fill-rule:nonzero;stroke:none"
         id="path242" /><path
         d="m 1442.34,1771.17 c -2.39,-12.67 -4.75,-25.05 -7.14,-37.17 13.47,7.03 27.33,13.9 41.6,20.59 4.66,2.18 9.37,4.35 14.12,6.5 7.38,19.9 15.06,40.21 23.18,60.81 -23.81,-12.26 -47.05,-25.01 -69.39,-38.21 -0.79,-4.2 -1.57,-8.37 -2.37,-12.52"
         style="fill:#4e4f56;fill-opacity:1;fill-rule:nonzero;stroke:none"
         id="path244" /><path
         d="m 1522.68,1419.84 c -8.03,-6.07 -16.04,-11.78 -24.03,-17.12 7.76,-4.62 15.41,-9.65 23.01,-15.07 9.77,5.31 19.49,11.04 29.18,17.13 -9.22,5.47 -18.61,10.51 -28.16,15.06"
         style="fill:#4e4f56;fill-opacity:1;fill-rule:nonzero;stroke:none"
         id="path246" /><path
         d="m 1645.96,1230.77 c -15.9,-3.35 -31.68,-6.23 -47.31,-8.57 9.38,-15.14 18.69,-31.07 27.97,-47.65 19.04,0.19 37.95,0.93 56.7,2.13 -11.89,18.12 -24.3,36.19 -37.36,54.09"
         style="fill:#4e4f56;fill-opacity:1;fill-rule:nonzero;stroke:none"
         id="path248" /><path
         d="m 1503.46,1736.67 c -4.77,-12.73 -9.42,-25.14 -13.93,-37.23 13.03,4.8 26.31,9.36 39.83,13.67 4.41,1.41 8.84,2.78 13.28,4.14 10.17,19.34 20.72,39.16 31.83,59.34 -22.32,-8.53 -44.51,-17.64 -66.29,-27.34 -1.6,-4.23 -3.14,-8.42 -4.72,-12.58"
         style="fill:#4e4f56;fill-opacity:1;fill-rule:nonzero;stroke:none"
         id="path250" /><path
         d="m 1618.95,1156.29 c -16.47,-0.14 -32.8,0.12 -48.97,0.86 7.7,-16.52 15.31,-33.74 22.89,-51.58 19.79,-3.51 39.26,-6.46 58.4,-8.94 -10.33,19.91 -21.09,39.83 -32.32,59.66"
         style="fill:#4e4f56;fill-opacity:1;fill-rule:nonzero;stroke:none"
         id="path252" /></g></g></svg>
