<?xml version="1.0" encoding="UTF-8" standalone="no"?>
<!-- Created with Inkscape (http://www.inkscape.org/) -->

<svg
   width="100mm"
   height="100mm"
   viewBox="0 0 100 100"
   version="1.1"
   id="svg962"
   inkscape:export-filename="aaa.svg"
   inkscape:export-xdpi="96"
   inkscape:export-ydpi="96"
   xmlns:inkscape="http://www.inkscape.org/namespaces/inkscape"
   xmlns:sodipodi="http://sodipodi.sourceforge.net/DTD/sodipodi-0.dtd"
   xmlns="http://www.w3.org/2000/svg"
   xmlns:svg="http://www.w3.org/2000/svg">
  <sodipodi:namedview
     id="namedview964"
     pagecolor="#ffffff"
     bordercolor="#000000"
     borderopacity="0.25"
     inkscape:showpageshadow="2"
     inkscape:pageopacity="0.0"
     inkscape:pagecheckerboard="0"
     inkscape:deskcolor="#d1d1d1"
     inkscape:document-units="mm"
     showgrid="false" />
  <defs
     id="defs959" />
  <g
     inkscape:label="Layer 1"
     inkscape:groupmode="layer"
     id="layer1">
    <path
       fill="#04293c"
       d="m 81.622687,11.432645 h -24.13762 c 0.03498,0.277688 0.08691,0.552407 0.08691,0.839845 0,0.286168 -0.05193,0.559456 -0.08691,0.838468 h 24.13762 c -0.03338,-0.277688 -0.08691,-0.552407 -0.08691,-0.838468 -0.0014,-0.288816 0.05194,-0.562211 0.08691,-0.839845 z"
       id="path244-7"
       style="stroke-width:0.264582" />
    <path
       fill="#04293c"
       d="m 12.633823,81.173051 c 0.287439,0 0.562254,0.05299 0.839872,0.08427 V 57.123887 c -0.276203,0.03179 -0.552438,0.08532 -0.839872,0.08532 -0.286059,0 -0.558046,-0.05299 -0.837068,-0.08532 v 24.133424 c 0.277634,-0.03179 0.54963,-0.08427 0.837068,-0.08427 z"
       id="path246-0"
       style="stroke-width:0.264582" />
    <path
       fill="#04293c"
       d="M 51.419467,43.279154 V 19.178005 c -0.279012,0.03179 -0.552439,0.08427 -0.837069,0.08427 -0.288816,0 -0.562254,-0.053 -0.841276,-0.08427 v 24.09972 c -1.267527,0.151565 -2.434095,0.642178 -3.398757,1.381123 -0.147215,0.112347 -0.293055,0.229993 -0.427659,0.353469 -0.09534,0.08532 -0.187864,0.17117 -0.276204,0.260729 -1.081042,1.081021 -1.805943,2.509786 -1.996632,4.105429 H 19.540706 c 0.03233,0.277688 0.08272,0.552407 0.08272,0.838468 0,0.287225 -0.04929,0.560832 -0.08272,0.839845 H 43.64187 c 0.396818,3.339881 3.149177,5.954859 6.550738,6.141344 0.128985,0.0053 0.257974,0.01068 0.388391,0.01068 0.01696,0 0.03074,-0.0014 0.05194,-0.0014 0.217328,-0.0029 0.436033,-0.01594 0.653388,-0.0371 0.0029,0 0.0059,0 0.01004,0 1.504484,-0.152617 2.868756,-0.785209 3.938579,-1.738673 0.0153,-0.01594 0.02967,-0.0265 0.04505,-0.04239 0.04081,-0.0371 0.07992,-0.0742 0.11775,-0.110754 0.04081,-0.0371 0.08553,-0.08001 0.124809,-0.120826 0.01802,-0.01593 0.02967,-0.03179 0.0477,-0.0477 0.06169,-0.06465 0.124793,-0.128777 0.183676,-0.195016 0.01275,-0.01068 0.02226,-0.0265 0.03233,-0.0371 1.109086,-1.238094 1.784911,-2.873005 1.784911,-4.664885 0.0014,-3.579622 -2.685075,-6.525495 -6.151132,-6.940542 z"
       id="path248-3"
       style="stroke-width:0.264582" />
    <path
       fill="#5298bd"
       d="m 12.633823,43.227274 c -3.8586571,0 -6.9896035,3.129548 -6.9896035,6.989616 0,3.861445 3.1309464,6.990992 6.9896035,6.990992 3.861457,0 6.989605,-3.129547 6.989605,-6.990992 0,-3.860068 -3.129547,-6.989616 -6.989605,-6.989616 z"
       id="path250-9"
       style="stroke-width:0.264582" />
    <path
       fill="#5298bd"
       d="m 88.525361,5.2801202 c -3.860057,0 -6.991005,3.1295472 -6.991005,6.9909928 0,3.860068 3.130948,6.989615 6.991005,6.989615 3.864264,0 6.989604,-3.129547 6.989604,-6.989615 0.0014,-3.8600671 -3.12534,-6.9909928 -6.989604,-6.9909928 z"
       id="path252-9"
       style="stroke-width:0.264582" />
    <path
       fill="#c95b40"
       d="m 50.582398,5.2801202 c -3.862859,0 -6.991009,3.1281162 -6.991009,6.9909928 0,3.860068 3.12815,6.989615 6.991009,6.989615 3.858653,0 6.989599,-3.129547 6.989599,-6.989615 0,-3.8614456 -3.130946,-6.9909928 -6.989599,-6.9909928 z"
       id="path254-9"
       style="stroke-width:0.264582" />
    <path
       fill="#c95b40"
       d="m 12.633823,81.173051 c -3.8586571,0 -6.9896035,3.129547 -6.9896035,6.989614 0,3.861447 3.1309464,6.990994 6.9896035,6.990994 3.861457,0 6.989605,-3.129547 6.989605,-6.990994 0,-3.858689 -3.129547,-6.989614 -6.989605,-6.989614 z"
       id="path256-1"
       style="stroke-width:0.264582" />
  </g>
</svg>
